{
    "asset" : {
        "generator" : "Khronos glTF Blender I/O v1.5.17",
        "version" : "2.0"
    },
    "scene" : 0,
    "scenes" : [
        {
            "name" : "Scene",
            "nodes" : [
                0,
                1,
                2,
                3,
                4,
                5,
                6,
                7,
                8,
                9,
                10
            ]
        }
    ],
    "nodes" : [
        {
            "name" : "Light",
            "rotation" : [
                0.21569962799549103,
                0.7757942080497742,
                -0.20874778926372528,
                0.5550147294998169
            ],
            "scale" : [
                1.2866058349609375,
                1.1876230239868164,
                1.1247936487197876
            ],
            "translation" : [
                4.076245307922363,
                6.841549396514893,
                1.0398914813995361
            ]
        },
        {
            "name" : "Camera",
            "rotation" : [
                0.483536034822464,
                0.33687159419059753,
                -0.20870360732078552,
                0.7804827094078064
            ],
            "translation" : [
                7.358891487121582,
                4.958309173583984,
                6.925790786743164
            ]
        },
        {
            "mesh" : 0,
            "name" : "Cylinder",
            "scale" : [
                1,
                1.8090791702270508,
                1
            ],
            "translation" : [
                0.057064056396484375,
                -0.10129547119140625,
                -0.004344940185546875
            ]
        },
        {
            "mesh" : 1,
            "name" : "Cylinder.001",
            "scale" : [
                0.4034322202205658,
                0.6331092119216919,
                0.3937244713306427
            ],
            "translation" : [
                0.037939637899398804,
                1.6088876724243164,
                0.0004088766872882843
            ]
        },
        {
            "mesh" : 2,
            "name" : "Cylinder.002",
            "rotation" : [
                0.08265244215726852,
                -0.022884489968419075,
                -0.001898457296192646,
                0.9963138699531555
            ],
            "scale" : [
                0.09928663820028305,
                1.7158437967300415,
                0.10911858826875687
            ],
            "translation" : [
                0.048954736441373825,
                0.2030472755432129,
                -1.154918909072876
            ]
        },
        {
            "mesh" : 3,
            "name" : "Cone",
            "rotation" : [
                0.08267425000667572,
                0,
                0,
                0.9965766072273254
            ],
            "scale" : [
                0.43007707595825195,
                0.4410102069377899,
                0.30614253878593445
            ],
            "translation" : [
                0.057064056396484375,
                -2.9626827239990234,
                -1.6759942770004272
            ]
        },
        {
            "mesh" : 4,
            "name" : "Cylinder.003",
            "rotation" : [
                -0.8542419075965881,
                0,
                0,
                0.519875705242157
            ],
            "scale" : [
                0.10966316610574722,
                0.38751423358917236,
                -0.11005417257547379
            ],
            "translation" : [
                0.057064056396484375,
                2.0011885166168213,
                -0.5125727653503418
            ]
        },
        {
            "mesh" : 5,
            "name" : "Sphere",
            "scale" : [
                -0.19854426383972168,
                0.21035677194595337,
                -0.13715629279613495
            ],
            "translation" : [
                0.0358925461769104,
                1.7726889848709106,
                -0.8294901847839355
            ]
        },
        {
            "mesh" : 6,
            "name" : "Cylinder.004",
            "rotation" : [
                -0.8477701544761658,
                0,
                0,
                0.5303637981414795
            ],
            "scale" : [
                0.2022140473127365,
                0.5387226343154907,
                0.11737091839313507
            ],
            "translation" : [
                0.057064056396484375,
                2.336475133895874,
                0.768639087677002
            ]
        },
        {
            "mesh" : 7,
            "name" : "Cylinder.005",
            "rotation" : [
                -0.6801846623420715,
                0,
                0,
                0.7330408096313477
            ],
            "scale" : [
                0.20200000703334808,
                0.5389999747276306,
                0.11699999868869781
            ],
            "translation" : [
                0.08299269527196884,
                1.8767712116241455,
                0.7025105953216553
            ]
        },
        {
            "mesh" : 8,
            "name" : "Cylinder.006",
            "scale" : [
                1.0728617906570435,
                0.5177176594734192,
                1.0539361238479614
            ],
            "translation" : [
                0.07019864022731781,
                -1.0575509071350098,
                -0.0015749931335449219
            ]
        }
    ],
    "materials" : [
        {
            "doubleSided" : true,
            "name" : "Material.008",
            "pbrMetallicRoughness" : {
                "baseColorFactor" : [
                    0.8000000715255737,
                    0,
                    0,
                    1
                ],
                "metallicFactor" : 0,
                "roughnessFactor" : 0.4000000059604645
            }
        },
        {
            "doubleSided" : true,
            "name" : "Material.005",
            "pbrMetallicRoughness" : {
                "baseColorFactor" : [
                    0.2529434263706207,
                    0.2529434263706207,
                    0.2529434263706207,
                    1
                ],
                "metallicFactor" : 0,
                "roughnessFactor" : 0.4000000059604645
            }
        },
        {
            "doubleSided" : true,
            "name" : "Material.002",
            "pbrMetallicRoughness" : {
                "baseColorFactor" : [
                    0,
                    0,
                    0,
                    1
                ],
                "metallicFactor" : 0,
                "roughnessFactor" : 0.4000000059604645
            }
        },
        {
            "doubleSided" : true,
            "name" : "Material.001",
            "pbrMetallicRoughness" : {
                "baseColorFactor" : [
                    0,
                    0,
                    0,
                    1
                ],
                "metallicFactor" : 0,
                "roughnessFactor" : 0.4000000059604645
            }
        },
        {
            "doubleSided" : true,
            "name" : "Material.004",
            "pbrMetallicRoughness" : {
                "baseColorFactor" : [
                    0,
                    0,
                    0,
                    1
                ],
                "metallicFactor" : 0,
                "roughnessFactor" : 0.4000000059604645
            }
        },
        {
            "doubleSided" : true,
            "name" : "Material.003",
            "pbrMetallicRoughness" : {
                "baseColorFactor" : [
                    0,
                    0,
                    0,
                    1
                ],
                "metallicFactor" : 0,
                "roughnessFactor" : 0.4000000059604645
            }
        },
        {
            "doubleSided" : true,
            "name" : "Material.006",
            "pbrMetallicRoughness" : {
                "baseColorFactor" : [
                    0.2529999911785126,
                    0.2529999911785126,
                    0.2529999911785126,
                    1
                ],
                "metallicFactor" : 0,
                "roughnessFactor" : 0.4000000059604645
            }
        },
        {
            "doubleSided" : true,
            "name" : "Material.007",
            "pbrMetallicRoughness" : {
                "baseColorFactor" : [
                    0.2529999911785126,
                    0.2529999911785126,
                    0.2529999911785126,
                    1
                ],
                "metallicFactor" : 0,
                "roughnessFactor" : 0.4000000059604645
            }
        }
    ],
    "meshes" : [
        {
            "name" : "Cylinder.002",
            "primitives" : [
                {
                    "attributes" : {
                        "POSITION" : 0,
                        "NORMAL" : 1,
                        "TEXCOORD_0" : 2
                    },
                    "indices" : 3,
                    "material" : 0
                }
            ]
        },
        {
            "name" : "Cylinder.003",
            "primitives" : [
                {
                    "attributes" : {
                        "POSITION" : 4,
                        "NORMAL" : 5,
                        "TEXCOORD_0" : 6
                    },
                    "indices" : 7,
                    "material" : 1
                }
            ]
        },
        {
            "name" : "Cylinder.004",
            "primitives" : [
                {
                    "attributes" : {
                        "POSITION" : 8,
                        "NORMAL" : 9,
                        "TEXCOORD_0" : 10
                    },
                    "indices" : 11,
                    "material" : 2
                }
            ]
        },
        {
            "name" : "Cone",
            "primitives" : [
                {
                    "attributes" : {
                        "POSITION" : 12,
                        "NORMAL" : 13,
                        "TEXCOORD_0" : 14
                    },
                    "indices" : 15,
                    "material" : 3
                }
            ]
        },
        {
            "name" : "Cylinder.005",
            "primitives" : [
                {
                    "attributes" : {
                        "POSITION" : 16,
                        "NORMAL" : 17,
                        "TEXCOORD_0" : 18
                    },
                    "indices" : 19,
                    "material" : 4
                }
            ]
        },
        {
            "name" : "Sphere",
            "primitives" : [
                {
                    "attributes" : {
                        "POSITION" : 20,
                        "NORMAL" : 21,
                        "TEXCOORD_0" : 22
                    },
                    "indices" : 23,
                    "material" : 5
                }
            ]
        },
        {
            "name" : "Cylinder.006",
            "primitives" : [
                {
                    "attributes" : {
                        "POSITION" : 24,
                        "NORMAL" : 25,
                        "TEXCOORD_0" : 26
                    },
                    "indices" : 7,
                    "material" : 6
                }
            ]
        },
        {
            "name" : "Cylinder.007",
            "primitives" : [
                {
                    "attributes" : {
                        "POSITION" : 27,
                        "NORMAL" : 28,
                        "TEXCOORD_0" : 29
                    },
                    "indices" : 7,
                    "material" : 7
                }
            ]
        },
        {
            "name" : "Cylinder.008",
            "primitives" : [
                {
                    "attributes" : {
                        "POSITION" : 30,
                        "NORMAL" : 31,
                        "TEXCOORD_0" : 32
                    },
                    "indices" : 7
                }
            ]
        }
    ],
    "accessors" : [
        {
            "bufferView" : 0,
            "componentType" : 5126,
            "count" : 704,
            "max" : [
                1,
                0.8905826807022095,
                1
            ],
            "min" : [
                -1.0000001192092896,
                -2.40230655670166,
                -1
            ],
            "type" : "VEC3"
        },
        {
            "bufferView" : 1,
            "componentType" : 5126,
            "count" : 704,
            "type" : "VEC3"
        },
        {
            "bufferView" : 2,
            "componentType" : 5126,
            "count" : 704,
            "type" : "VEC2"
        },
        {
            "bufferView" : 3,
            "componentType" : 5123,
            "count" : 1140,
            "type" : "SCALAR"
        },
        {
            "bufferView" : 4,
            "componentType" : 5126,
            "count" : 192,
            "max" : [
                1,
                1,
                1
            ],
            "min" : [
                -1,
                -1,
                -1
            ],
            "type" : "VEC3"
        },
        {
            "bufferView" : 5,
            "componentType" : 5126,
            "count" : 192,
            "type" : "VEC3"
        },
        {
            "bufferView" : 6,
            "componentType" : 5126,
            "count" : 192,
            "type" : "VEC2"
        },
        {
            "bufferView" : 7,
            "componentType" : 5123,
            "count" : 372,
            "type" : "SCALAR"
        },
        {
            "bufferView" : 8,
            "componentType" : 5126,
            "count" : 320,
            "max" : [
                1.0000141859054565,
                0.9810190200805664,
                1.000000238418579
            ],
            "min" : [
                -1,
                -1.8256926536560059,
                -1
            ],
            "type" : "VEC3"
        },
        {
            "bufferView" : 9,
            "componentType" : 5126,
            "count" : 320,
            "type" : "VEC3"
        },
        {
            "bufferView" : 10,
            "componentType" : 5126,
            "count" : 320,
            "type" : "VEC2"
        },
        {
            "bufferView" : 11,
            "componentType" : 5123,
            "count" : 564,
            "type" : "SCALAR"
        },
        {
            "bufferView" : 12,
            "componentType" : 5126,
            "count" : 128,
            "max" : [
                1,
                1,
                1
            ],
            "min" : [
                -1,
                -1,
                -1
            ],
            "type" : "VEC3"
        },
        {
            "bufferView" : 13,
            "componentType" : 5126,
            "count" : 128,
            "type" : "VEC3"
        },
        {
            "bufferView" : 14,
            "componentType" : 5126,
            "count" : 128,
            "type" : "VEC2"
        },
        {
            "bufferView" : 15,
            "componentType" : 5123,
            "count" : 186,
            "type" : "SCALAR"
        },
        {
            "bufferView" : 16,
            "componentType" : 5126,
            "count" : 192,
            "max" : [
                1,
                1.1820456981658936,
                1
            ],
            "min" : [
                -0.7829000949859619,
                -1.003441572189331,
                -0.6354144811630249
            ],
            "type" : "VEC3"
        },
        {
            "bufferView" : 17,
            "componentType" : 5126,
            "count" : 192,
            "type" : "VEC3"
        },
        {
            "bufferView" : 18,
            "componentType" : 5126,
            "count" : 192,
            "type" : "VEC2"
        },
        {
            "bufferView" : 19,
            "componentType" : 5123,
            "count" : 372,
            "type" : "SCALAR"
        },
        {
            "bufferView" : 20,
            "componentType" : 5126,
            "count" : 1984,
            "max" : [
                1.000000238418579,
                1,
                1.0000003576278687
            ],
            "min" : [
                -0.9999998211860657,
                -1,
                -1
            ],
            "type" : "VEC3"
        },
        {
            "bufferView" : 21,
            "componentType" : 5126,
            "count" : 1984,
            "type" : "VEC3"
        },
        {
            "bufferView" : 22,
            "componentType" : 5126,
            "count" : 1984,
            "type" : "VEC2"
        },
        {
            "bufferView" : 23,
            "componentType" : 5123,
            "count" : 2880,
            "type" : "SCALAR"
        },
        {
            "bufferView" : 24,
            "componentType" : 5126,
            "count" : 192,
            "max" : [
                1,
                1,
                1
            ],
            "min" : [
                -1,
                -1,
                -1
            ],
            "type" : "VEC3"
        },
        {
            "bufferView" : 25,
            "componentType" : 5126,
            "count" : 192,
            "type" : "VEC3"
        },
        {
            "bufferView" : 26,
            "componentType" : 5126,
            "count" : 192,
            "type" : "VEC2"
        },
        {
            "bufferView" : 27,
            "componentType" : 5126,
            "count" : 192,
            "max" : [
                1,
                1,
                1
            ],
            "min" : [
                -1,
                -1,
                -1
            ],
            "type" : "VEC3"
        },
        {
            "bufferView" : 28,
            "componentType" : 5126,
            "count" : 192,
            "type" : "VEC3"
        },
        {
            "bufferView" : 29,
            "componentType" : 5126,
            "count" : 192,
            "type" : "VEC2"
        },
        {
            "bufferView" : 30,
            "componentType" : 5126,
            "count" : 192,
            "max" : [
                1,
                1,
                1
            ],
            "min" : [
                -1,
                -1,
                -1
            ],
            "type" : "VEC3"
        },
        {
            "bufferView" : 31,
            "componentType" : 5126,
            "count" : 192,
            "type" : "VEC3"
        },
        {
            "bufferView" : 32,
            "componentType" : 5126,
            "count" : 192,
            "type" : "VEC2"
        }
    ],
    "bufferViews" : [
        {
            "buffer" : 0,
            "byteLength" : 8448,
            "byteOffset" : 0
        },
        {
            "buffer" : 0,
            "byteLength" : 8448,
            "byteOffset" : 8448
        },
        {
            "buffer" : 0,
            "byteLength" : 5632,
            "byteOffset" : 16896
        },
        {
            "buffer" : 0,
            "byteLength" : 2280,
            "byteOffset" : 22528
        },
        {
            "buffer" : 0,
            "byteLength" : 2304,
            "byteOffset" : 24808
        },
        {
            "buffer" : 0,
            "byteLength" : 2304,
            "byteOffset" : 27112
        },
        {
            "buffer" : 0,
            "byteLength" : 1536,
            "byteOffset" : 29416
        },
        {
            "buffer" : 0,
            "byteLength" : 744,
            "byteOffset" : 30952
        },
        {
            "buffer" : 0,
            "byteLength" : 3840,
            "byteOffset" : 31696
        },
        {
            "buffer" : 0,
            "byteLength" : 3840,
            "byteOffset" : 35536
        },
        {
            "buffer" : 0,
            "byteLength" : 2560,
            "byteOffset" : 39376
        },
        {
            "buffer" : 0,
            "byteLength" : 1128,
            "byteOffset" : 41936
        },
        {
            "buffer" : 0,
            "byteLength" : 1536,
            "byteOffset" : 43064
        },
        {
            "buffer" : 0,
            "byteLength" : 1536,
            "byteOffset" : 44600
        },
        {
            "buffer" : 0,
            "byteLength" : 1024,
            "byteOffset" : 46136
        },
        {
            "buffer" : 0,
            "byteLength" : 372,
            "byteOffset" : 47160
        },
        {
            "buffer" : 0,
            "byteLength" : 2304,
            "byteOffset" : 47532
        },
        {
            "buffer" : 0,
            "byteLength" : 2304,
            "byteOffset" : 49836
        },
        {
            "buffer" : 0,
            "byteLength" : 1536,
            "byteOffset" : 52140
        },
        {
            "buffer" : 0,
            "byteLength" : 744,
            "byteOffset" : 53676
        },
        {
            "buffer" : 0,
            "byteLength" : 23808,
            "byteOffset" : 54420
        },
        {
            "buffer" : 0,
            "byteLength" : 23808,
            "byteOffset" : 78228
        },
        {
            "buffer" : 0,
            "byteLength" : 15872,
            "byteOffset" : 102036
        },
        {
            "buffer" : 0,
            "byteLength" : 5760,
            "byteOffset" : 117908
        },
        {
            "buffer" : 0,
            "byteLength" : 2304,
            "byteOffset" : 123668
        },
        {
            "buffer" : 0,
            "byteLength" : 2304,
            "byteOffset" : 125972
        },
        {
            "buffer" : 0,
            "byteLength" : 1536,
            "byteOffset" : 128276
        },
        {
            "buffer" : 0,
            "byteLength" : 2304,
            "byteOffset" : 129812
        },
        {
            "buffer" : 0,
            "byteLength" : 2304,
            "byteOffset" : 132116
        },
        {
            "buffer" : 0,
            "byteLength" : 1536,
            "byteOffset" : 134420
        },
        {
            "buffer" : 0,
            "byteLength" : 2304,
            "byteOffset" : 135956
        },
        {
            "buffer" : 0,
            "byteLength" : 2304,
            "byteOffset" : 138260
        },
        {
            "buffer" : 0,
            "byteLength" : 1536,
            "byteOffset" : 140564
        }
    ],
    "buffers" : [
        {
            "byteLength" : 142100,
            "uri" : "data:application/octet-stream;base64,"
        }
    ]
}
